# xmcd
#
# Track frame offsets: 
#        210
#        12198
#        27402
#        40381
#        53740
#        66898
#        78388
#        91185
#        103446
#        114264
#        126234
#        139286
#        152858
#        166715
#        179468
#        192249
#        206579
#        219725
#        232090
#        244269
#        256682
#        269430
#        281548
#
# Disc length: 3932 seconds
#
# Revision: 1
# Processed by: cddbd v1.5.2PL0 Copyright (c) Steve Scherf et al.
# Submitted via: ExactAudioCopyFreeDBPlugin 1.0
#
DISCID=500f5a17
DTITLE=Jimmie Gordon - Complete Recorded Works Vol. 3 1939-1946
DYEAR=1999
DGENRE=Blues
TTITLE0=Get Your Mind Out of the Gutter
TTITLE1=Delhia
TTITLE2=Do That Thing
TTITLE3=The Mojo Blues
TTITLE4=St. Peter Blues
TTITLE5=If the Walls Could Talk
TTITLE6=Nobody Knows the Trouble I See
TTITLE7=The Boogie Man
TTITLE8=Ease It to Me
TTITLE9=Henpecked Man
TTITLE10=Trigger Slim Blues
TTITLE11=(Roll 'Em Dorothy) Let 'Em Jump for Joy
TTITLE12=L and N Blues
TTITLE13=Boogie Woogie Blues
TTITLE14=Actions Speak Louder Than Words
TTITLE15=Daddy Bear Blues
TTITLE16=Lookin' for the Blues
TTITLE17=Beer Drinking Woman
TTITLE18=I'm Gonna Cut Out
TTITLE19=Rock That Boogie
TTITLE20=It Ain't Like That No More
TTITLE21=Jumpin' at the Club Blue Flame
TTITLE22=Fast Life
EXTD=
EXTT0=
EXTT1=
EXTT2=
EXTT3=
EXTT4=
EXTT5=
EXTT6=
EXTT7=
EXTT8=
EXTT9=
EXTT10=
EXTT11=
EXTT12=
EXTT13=
EXTT14=
EXTT15=
EXTT16=
EXTT17=
EXTT18=
EXTT19=
EXTT20=
EXTT21=
EXTT22=
PLAYORDER=
